# xmcd CD database file
#
# Track frame offsets:
#	150
#	16475
#	34590
#	45800
#	56627
#	69900
#	81110
#	99142
#	114565
#	127172
#	137110
#	146510
#	158895
#	169237
#	180177
#
# Disc length: 2620 seconds
#
# Revision: 0
# Processed by: cddbd v1.5.2PL0 Copyright (c) Steve Scherf et al.
# Submitted via: CDex 1.51
#
DISCID=bc0a3a0f
DTITLE=Johnny St. Cyr - Johnny St. Cyr
DYEAR=1900
DGENRE=Jazz
TTITLE0=Someday, Youll Be Sorry (vocal Jack Delaney)
TTITLE1=Someday, Youll Be Sorry (vocal Jeanette Kimball)
TTITLE2=Rose Of The Rio Grande
TTITLE3=The Pearls
TTITLE4=At Sundown
TTITLE5=Could I Have Known
TTITLE6=Boogie Woogie
TTITLE7=Bill Bailey (vocal Jefferson)
TTITLE8=Careless Love
TTITLE9=Bye and Bye (vocal Jefferson)
TTITLE10=Sister Kate
TTITLE11=Darktown Strutters Ball (vocal Jefferson)
TTITLE12=Down By The Riverside (vocal Jefferson)
TTITLE13=Streets Of The City (vocal Sister Elizabeth Eustis)
TTITLE14=Somebody Stole My Gal
EXTD=
EXTT0=
EXTT1=
EXTT2=
EXTT3=
EXTT4=
EXTT5=
EXTT6=
EXTT7=
EXTT8=
EXTT9=
EXTT10=
EXTT11=
EXTT12=
EXTT13=
EXTT14=
PLAYORDER=
